:version 1.10
:name ASF
:units
  mass 1
  length 1
  angle deg
:documentation
  ASF file generated by Kaydara
:root
  axis xyz
  order  tx ty tz rx ry rz
  position 0 0 0
  orientation 0 0 0
:bonedata
  begin
    id 1
    name RightUpLegDummy
    direction -0.65628 -0.754516 0.00165102
    length 4.76918
    axis 0 0 0 xyz
  end
  begin
    id 2
    name RightUpLeg
    direction -0.145584 -0.923362 0.355256
    length 17.9961
    axis -24.7611 -13.1006 1.78531 xyz
    dof rx ry rz
  end
  begin
    id 3
    name RightLeg
    direction 0.263379 0.172355 -0.949171
    length 13.3386
    axis 89.6202 -21.1929 12.3855 xyz
    dof rx ry rz
  end
  begin
    id 4
    name RightFoot
    direction 0.224283 -0.968777 -0.105675
    length 5.86697
    axis 56.995 -39.6905 17.3365 xyz
    dof rx ry rz
  end
  begin
    id 5
    name RightToes
    direction -0.0806345 -0.9037 0.420506
    length 4.75197
    axis 146.825 -39.7828 17.6019 xyz
    dof rx ry rz
  end
  begin
    id 6
    name SpineDummy
    direction -3.39852e-014 1 9.33296e-014
    length 8.13779
    axis 0 0 0 xyz
  end
  begin
    id 7
    name Spine
    direction -0.156609 0.733703 0.661176
    length 7.14978
    axis 41.2365 5.68757 17.0844 xyz
    dof rx ry rz
  end
  begin
    id 8
    name Spine1
    direction 0 0 0
    length 0
    axis 42.8809 47.8308 -3.36039 xyz
    dof rx ry rz
  end
  begin
    id 9
    name HEadDummy
    direction 0.546431 0.701947 0.456819
    length 3.55512
    axis 42.8809 47.8308 -3.36039 xyz
  end
  begin
    id 10
    name HEad
    direction 0.23444 0.828559 0.508457
    length 7.35827
    axis 51.1864 49.2662 27.4903 xyz
    dof rx ry rz
  end
  begin
    id 11
    name LeftShoulder1Dummy
    direction 0.431183 0.475873 -0.766568
    length 2.49352
    axis 42.8809 47.8308 -3.36039 xyz
  end
  begin
    id 12
    name LeftShoulder1
    direction 0.268187 -0.383402 -0.883786
    length 4.48604
    axis -119.517 0.106469 35.1736 xyz
    dof rx ry rz
  end
  begin
    id 13
    name LeftArm
    direction 0.380567 -0.703221 -0.600541
    length 10.1142
    axis -5.41825 36.2925 7.8293 xyz
    dof rx ry rz
  end
  begin
    id 14
    name LeftForeArm
    direction 0.541071 -0.732356 -0.413396
    length 9.39839
    axis 4.65387 33.7604 7.81644 xyz
    dof rx ry rz
  end
  begin
    id 15
    name LeftHand
    direction 0.847511 -0.389379 -0.360707
    length 3.66142
    axis 7.65593 21.1436 -24.6758 xyz
    dof rx ry rz
  end
  begin
    id 16
    name RightShoulderDummy
    direction -0.692546 0.541855 0.476208
    length 2.49352
    axis 42.8809 47.8308 -3.36039 xyz
  end
  begin
    id 17
    name RightShoulder
    direction -0.870808 -0.316653 0.376065
    length 4.48602
    axis 141.571 51.133 -100.254 xyz
    dof rx ry rz
  end
  begin
    id 18
    name RightArm
    direction 0.366897 -0.87275 0.322015
    length 10.1142
    axis 92.3258 71.2036 138.917 xyz
    dof rx ry rz
  end
  begin
    id 19
    name RightForeArm
    direction 0.702487 -0.694568 0.155197
    length 9.39835
    axis 153.863 41.5092 -176.604 xyz
    dof rx ry rz
  end
  begin
    id 20
    name RightHand
    direction 0.79502 -0.601276 0.0800636
    length 3.66142
    axis 154.247 4.59222 142.9 xyz
    dof rx ry rz
  end
  begin
    id 21
    name LeftUpLegDummy
    direction 0.65628 -0.754516 0.00165102
    length 4.76919
    axis 0 0 0 xyz
  end
  begin
    id 22
    name LeftUpLeg
    direction -0.1277 -0.689368 0.713067
    length 17.9961
    axis -48.3385 -17.8675 0.791927 xyz
    dof rx ry rz
  end
  begin
    id 23
    name LeftLeg
    direction 0.109849 -0.991246 -0.0732378
    length 13.3386
    axis -2.05791 -7.30784 1.72042 xyz
    dof rx ry rz
  end
  begin
    id 24
    name LeftFoot
    direction 0.0448355 -0.272614 0.961078
    length 5.86697
    axis -18.7733 -7.89606 10.2113 xyz
    dof rx ry rz
  end
  begin
    id 25
    name LeftToes
    direction -0.18506 0.293668 0.937823
    length 4.75197
    axis 71.2267 -7.89606 10.2113 xyz
    dof rx ry rz
  end
:hierarchy
  begin
    root RightUpLegDummy SpineDummy LeftUpLegDummy
    RightUpLegDummy RightUpLeg
    RightUpLeg RightLeg
    RightLeg RightFoot
    RightFoot RightToes
    SpineDummy Spine
    Spine Spine1
    Spine1 HEadDummy LeftShoulder1Dummy RightShoulderDummy
    HEadDummy HEad
    LeftShoulder1Dummy LeftShoulder1
    LeftShoulder1 LeftArm
    LeftArm LeftForeArm
    LeftForeArm LeftHand
    RightShoulderDummy RightShoulder
    RightShoulder RightArm
    RightArm RightForeArm
    RightForeArm RightHand
    LeftUpLegDummy LeftUpLeg
    LeftUpLeg LeftLeg
    LeftLeg LeftFoot
    LeftFoot LeftToes
  end

:SAMPLES-PER-SECOND 30
:FULLY-SPECIFIED
:DEGREES
170
root  -6.62034 37.2702 52.0428 2.074 46.109 2.47783
RightUpLeg  -7.07785 -7.57883 -4.64646
RightLeg  -72.5449 -20.7512 13.2593
RightFoot  15.4554 5.79332 -16.6637
RightToes  -1.27222e-014 -6.36111e-015 6.36111e-015
Spine  -22.787 -32.7065 -21.2925
Spine1  -2.0044 -22.5477 79.0313
HEad  -12.7004 -10.7879 -18.2745
LeftShoulder1  6.36111e-015 -1.33558e-015 6.49777e-015
LeftArm  14.4456 -3.41404 -29.2437
LeftForeArm  -56.7754 -51.2951 40.8913
LeftHand  0.680263 2.55046 -2.88648
RightShoulder  -4.77083e-015 -6.36111e-015 -3.18055e-015
RightArm  72.9632 -17.872 -41.5453
RightForeArm  -31.8866 7.0672 -22.799
RightHand  -0.656012 2.6635 1.88965
LeftUpLeg  47.2237 10.9773 40.7186
LeftLeg  -16.2958 -0.081785 -2.35071
LeftFoot  9.81805 7.08217 -18.0345
LeftToes  9.54166e-015 4.2066e-011 -8.07781e-011
171
root  -6.84361 37.5074 51.3836 3.63214 53.073 5.62635
RightUpLeg  -5.22599 0.829795 -4.83327
RightLeg  -78.5577 -23.6677 23.3506
RightFoot  16.1758 6.15324 -17.3788
RightToes  -1.27222e-014 -6.36111e-015 6.36111e-015
Spine  -24.1588 -32.2038 -20.2144
Spine1  2.93775 -23.8099 74.5836
HEad  -9.43135 -8.43745 -18.8028
LeftShoulder1  6.36111e-015 -1.33558e-015 6.49777e-015
LeftArm  10.5151 -2.84323 -35.2681
LeftForeArm  -44.5902 -48.4483 27.928
LeftHand  0.821174 2.84875 -2.58753
RightShoulder  -4.77083e-015 -6.36111e-015 -3.18055e-015
RightArm  71.5441 -24.228 -39.6471
RightForeArm  -34.8027 9.48482 -26.1236
RightHand  -0.752388 3.39483 1.69489
LeftUpLeg  43.0131 11.0344 34.2819
LeftLeg  -14.6757 2.28494 -2.411
LeftFoot  11.1922 6.53462 -16.1089
LeftToes  9.54166e-015 4.2066e-011 -8.07781e-011
172
root  -7.03464 37.9352 50.9327 6.93068 59.1053 9.39487
RightUpLeg  -1.32715 13.5779 -0.499335
RightLeg  -80.6569 -22.7836 23.9911
RightFoot  12.116 7.31471 -18.8796
RightToes  -1.27222e-014 -6.36111e-015 6.36111e-015
Spine  -27.1399 -30.8165 -18.1591
Spine1  7.73031 -24.0034 68.9183
HEad  -3.93921 -1.71935 -21.1334
LeftShoulder1  6.36111e-015 -1.33558e-015 6.49777e-015
LeftArm  10.0823 -1.89621 -40.2922
LeftForeArm  -32.5454 -43.7123 16.8304
LeftHand  1.15627 3.98336 -3.22103
RightShoulder  -4.77083e-015 -6.36111e-015 -3.18055e-015
RightArm  66.4439 -30.4517 -32.7292
RightForeArm  -36.1392 10.8724 -28.0752
RightHand  -0.590898 3.29526 0.229658
LeftUpLeg  38.8303 10.9408 27.9413
LeftLeg  -14.4057 5.13133 -2.69704
LeftFoot  14.7135 5.06031 -11.5237
LeftToes  9.54166e-015 4.2066e-011 -8.07781e-011
173
root  -7.28361 38.2569 50.6071 11.5391 64.996 14.2215
RightUpLeg  5.43039 30.2668 8.11468
RightLeg  -77.3551 -19.1306 13.6136
RightFoot  7.5393 8.10639 -19.8937
RightToes  -1.27222e-014 -6.36111e-015 6.36111e-015
Spine  -28.9983 -28.4716 -15.6216
Spine1  10.7452 -23.0343 63.3068
HEad  -1.08544 7.04238 -22.9544
LeftShoulder1  6.36111e-015 -1.33558e-015 6.49777e-015
LeftArm  12.8513 -1.26094 -43.093
LeftForeArm  -22.0927 -38.5037 9.21766
LeftHand  1.71737 5.36939 -2.73195
RightShoulder  -4.77083e-015 -6.36111e-015 -3.18055e-015
RightArm  58.5461 -34.0935 -22.9653
RightForeArm  -37.0311 12.387 -30.0819
RightHand  -0.316436 2.61619 -1.25548
LeftUpLeg  34.1323 10.4183 23.3381
LeftLeg  -13.6661 5.83855 -2.60715
LeftFoot  20.4151 4.22844 -8.53108
LeftToes  9.54166e-015 4.2066e-011 -8.07781e-011
174
root  -7.51808 38.144 50.3855 20.1949 72.6448 24.1452
RightUpLeg  14.2263 42.4683 17.821
RightLeg  -73.981 -17.3391 7.76638
RightFoot  7.2599 7.48531 -18.6045
RightToes  -1.27222e-014 -6.36111e-015 6.36111e-015
Spine  -28.5576 -26.1195 -12.5017
Spine1  11.6824 -22.2509 57.4308
HEad  -0.979796 14.9315 -23.676
LeftShoulder1  6.36111e-015 -1.33558e-015 6.49777e-015
LeftArm  18.031 -2.23362 -43.4521
LeftForeArm  -14.8629 -31.7118 3.91049
LeftHand  2.50319 7.04997 -1.56284
RightShoulder  -4.77083e-015 -6.36111e-015 -3.18055e-015
RightArm  51.1326 -34.985 -14.633
RightForeArm  -39.2165 14.2548 -33.3319
RightHand  -0.184483 2.0587 -1.51172
LeftUpLeg  28.5813 11.0942 20.7428
LeftLeg  -8.76098 2.7873 -1.38052
LeftFoot  24.2342 4.21277 -7.86868
LeftToes  9.54166e-015 4.2066e-011 -8.07781e-011
175
root  -7.59293 37.7629 50.1662 48.9868 81.2915 54.9378
RightUpLeg  18.4 40.9459 19.2093
RightLeg  -72.0886 -18.0414 8.1471
RightFoot  6.9385 6.85662 -17.2811
RightToes  -1.27222e-014 -6.36111e-015 6.36111e-015
Spine  -28.328 -23.1651 -7.54218
Spine1  12.6127 -21.9183 51.528
HEad  -1.69244 20.238 -24.4755
LeftShoulder1  6.36111e-015 -1.33558e-015 6.49777e-015
LeftArm  24.1304 -5.61648 -42.5111
LeftForeArm  -11.7069 -24.1464 0.838406
LeftHand  3.37892 9.05531 -0.818798
RightShoulder  -4.77083e-015 -6.36111e-015 -3.18055e-015
RightArm  47.314 -33.4747 -10.9145
RightForeArm  -44.3552 15.681 -38.2566
RightHand  -0.197899 1.76086 -0.902176
LeftUpLeg  22.8629 13.4437 19.2957
LeftLeg  -0.576261 -1.84675 -0.474981
LeftFoot  23.7061 4.45796 -8.40513
LeftToes  9.54166e-015 4.2066e-011 -8.07781e-011
176
root  -7.45313 37.4999 49.8736 126.607 81.8122 134.161
RightUpLeg  17.0844 30.6214 12.3106
RightLeg  -71.739 -18.6588 9.06443
RightFoot  6.2636 6.74745 -16.9461
RightToes  -1.27222e-014 -6.36111e-015 6.36111e-015
Spine  -30.3583 -18.5862 -1.72132
Spine1  14.9245 -20.6524 46.9475
HEad  -2.14187 23.0472 -25.7028
LeftShoulder1  6.36111e-015 -1.33558e-015 6.49777e-015
LeftArm  29.021 -10.2081 -41.3348
LeftForeArm  -9.79907 -19.5256 -0.448353
LeftHand  3.79436 10.3356 -1.19708
RightShoulder  -4.77083e-015 -6.36111e-015 -3.18055e-015
RightArm  47.843 -29.9022 -12.3679
RightForeArm  -51.8371 15.7641 -43.6473
RightHand  -0.288092 1.79859 -0.165822
LeftUpLeg  18.2979 16.9011 19.0649
LeftLeg  7.81816 -4.68741 -0.486752
LeftFoot  19.6663 4.5518 -9.31715
LeftToes  9.54166e-015 4.2066e-011 -8.07781e-011
177
root  -7.12159 37.4399 49.5816 154.221 75.0828 162.435
RightUpLeg  16.3362 21.5185 6.36207
RightLeg  -71.6842 -18.1356 8.07208
RightFoot  5.74425 6.52987 -16.4033
RightToes  -1.27222e-014 -6.36111e-015 6.36111e-015
Spine  -32.8903 -14.2796 1.25836
Spine1  16.7458 -18.4108 44.0173
HEad  -1.30969 24.5785 -25.6901
LeftShoulder1  6.36111e-015 -1.33558e-015 6.49777e-015
LeftArm  31.7301 -13.4702 -39.48
LeftForeArm  -6.84716 -19.2875 -0.783871
LeftHand  3.40733 10.2388 -3.10493
RightShoulder  -4.77083e-015 -6.36111e-015 -3.18055e-015
RightArm  49.9533 -25.514 -15.7185
RightForeArm  -56.818 14.9503 -46.0229
RightHand  -0.551713 2.80474 0.667992
LeftUpLeg  15.3866 21.0161 20.0494
LeftLeg  14.4522 -4.22953 -0.103473
LeftFoot  15.2886 4.18506 -9.42978
LeftToes  9.54166e-015 4.2066e-011 -8.07781e-011
178
root  -6.63195 37.5667 49.2481 162.743 68.8979 170.961
RightUpLeg  18.2404 18.3518 5.55495
RightLeg  -72.8412 -17.8599 8.13212
RightFoot  6.46939 5.4639 -14.3526
RightToes  -1.27222e-014 -6.36111e-015 6.36111e-015
Spine  -34.1791 -11.2097 1.88597
Spine1  15.5852 -16.066 42.1441
HEad  1.84624 25.2673 -23.1667
LeftShoulder1  6.36111e-015 -1.33558e-015 6.49777e-015
LeftArm  32.92 -13.8849 -35.9848
LeftForeArm  -4.125 -20.6237 -0.956327
LeftHand  2.54779 9.04613 -5.65717
RightShoulder  -4.77083e-015 -6.36111e-015 -3.18055e-015
RightArm  50.5936 -21.8189 -16.686
RightForeArm  -54.7426 14.6472 -43.73
RightHand  -0.983381 4.70699 1.93614
LeftUpLeg  14.351 24.4281 21.6087
LeftLeg  17.2602 -0.977641 1.47337
LeftFoot  13.5804 3.5436 -8.31602
LeftToes  9.54166e-015 4.2066e-011 -8.07781e-011
179
root  -6.06616 37.8384 48.8066 167.352 63.1126 175.159
RightUpLeg  21.2579 17.7352 7.17281
RightLeg  -75.7887 -18.522 11.1608
RightFoot  9.09266 3.95096 -12.0124
RightToes  -1.27222e-014 -6.36111e-015 6.36111e-015
Spine  -34.3883 -9.41825 1.60432
Spine1  11.9512 -14.3613 40.5975
HEad  6.57919 24.4846 -19.7348
LeftShoulder1  6.36111e-015 -1.33558e-015 6.49777e-015
LeftArm  33.3796 -12.2181 -30.6709
LeftForeArm  -4.00659 -20.438 -1.03125
LeftHand  1.83869 7.71458 -7.3718
RightShoulder  -4.77083e-015 -6.36111e-015 -3.18055e-015
RightArm  49.4099 -19.0132 -14.6132
RightForeArm  -46.5017 14.9038 -38.5063
RightHand  -1.31354 6.17247 3.26862
LeftUpLeg  14.7256 26.4925 22.768
LeftLeg  14.8127 1.92909 2.39947
LeftFoot  14.2087 2.80988 -6.52012
LeftToes  9.54166e-015 4.2066e-011 -8.07781e-011
180
root  -5.5059 38.2828 48.2598 170.524 57.4093 177.369
RightUpLeg  23.5395 16.0134 7.00471
RightLeg  -79.6931 -17.962 12.8127
RightFoot  12.6802 3.38878 -11.9199
RightToes  -1.27222e-014 -6.36111e-015 6.36111e-015
Spine  -35.0859 -8.39556 0.60686
Spine1  9.05354 -13.0537 39.6038
HEad  9.88062 22.4025 -17.3092
LeftShoulder1  6.36111e-015 -1.33558e-015 6.49777e-015
LeftArm  33.1399 -10.7519 -24.7249
LeftForeArm  -6.14984 -18.8713 -0.923158
LeftHand  1.45351 6.66575 -7.73964
RightShoulder  -4.77083e-015 -6.36111e-015 -3.18055e-015
RightArm  47.8671 -16.2001 -12.1162
RightForeArm  -36.6703 14.5476 -32.2464
RightHand  -1.32731 6.02261 3.74941
LeftUpLeg  16.1197 27.8752 23.1325
LeftLeg  6.82268 1.35193 0.978252
LeftFoot  13.9703 1.95186 -4.57929
LeftToes  9.54166e-015 4.2066e-011 -8.07781e-011
